<?xml version="1.0" encoding="UTF-8"?>
<svg version="1.1" xmlns="http://www.w3.org/2000/svg" width="512" height="512">
<path d="M0 0 C1.12709721 -0.00367669 2.25419443 -0.00735338 3.4154461 -0.01114148 C7.18885938 -0.02214645 10.96224509 -0.02601682 14.735672 -0.02983093 C17.44313795 -0.03556951 20.15059983 -0.04273295 22.85806274 -0.04974365 C30.98137639 -0.06946224 39.1046912 -0.07956994 47.22802278 -0.08847144 C51.06228733 -0.09286325 54.89655051 -0.09822785 58.73081398 -0.10346031 C71.49307944 -0.12047052 84.25534408 -0.13496075 97.01761913 -0.14220905 C100.32598052 -0.14411867 103.63434189 -0.14603904 106.94270325 -0.147995 C107.76488943 -0.14847874 108.58707562 -0.14896248 109.43417654 -0.14946087 C122.72837493 -0.15774647 136.02248291 -0.18305936 149.31664189 -0.21557567 C162.99463195 -0.24875531 176.67257626 -0.26666775 190.35060674 -0.26985329 C198.01837321 -0.2720087 205.68600798 -0.28061362 213.35373497 -0.30631447 C219.88940462 -0.32817133 226.42491057 -0.33599927 232.96061262 -0.32634769 C236.28680492 -0.32184527 239.61239052 -0.32569266 242.93857956 -0.34310913 C274.98139832 -0.50137378 303.4791556 6.05607439 329.73884583 25.14717102 C330.55353333 25.73756165 331.36822083 26.32795227 332.20759583 26.93623352 C350.67026137 41.02300756 364.38909885 58.96529392 373.73884583 80.14717102 C374.46007629 81.77719055 374.46007629 81.77719055 375.19587708 83.44013977 C381.12453726 97.85878463 383.88874944 112.88018148 383.88601685 128.4083252 C383.88969353 129.53542241 383.89337022 130.66251962 383.89715832 131.8237713 C383.90816329 135.59718458 383.91203366 139.37057029 383.91584778 143.14399719 C383.92158636 145.85146315 383.92874979 148.55892502 383.9357605 151.26638794 C383.95547908 159.38970159 383.96558678 167.51301639 383.97448829 175.63634798 C383.97888009 179.47061252 383.9842447 183.3048757 383.98947716 187.13913918 C384.00648737 199.90140464 384.0209776 212.66366927 384.0282259 225.42594433 C384.03013551 228.73430571 384.03205588 232.04266709 384.03401184 235.35102844 C384.03449558 236.17321463 384.03497932 236.99540082 384.03547772 237.84250174 C384.04376331 251.13670012 384.06907621 264.4308081 384.10159252 277.72496708 C384.13477215 291.40295715 384.1526846 305.08090145 384.15587014 318.75893193 C384.15802554 326.42669841 384.16663047 334.09433317 384.19233131 341.76206017 C384.21418818 348.29772981 384.22201612 354.83323576 384.21236453 361.36893781 C384.20786212 364.69513011 384.21170951 368.02071572 384.22912598 371.34690475 C384.38739063 403.38972352 377.82994246 431.88748079 358.73884583 458.14717102 C357.85325989 459.36920227 357.85325989 459.36920227 356.94978333 460.61592102 C342.86300929 479.07858657 324.92072292 492.79742405 303.73884583 502.14717102 C302.10882629 502.86840149 302.10882629 502.86840149 300.44587708 503.60420227 C286.02723222 509.53286245 271.00583536 512.29707464 255.47769165 512.29434204 C254.35059444 512.29801873 253.22349722 512.30169542 252.06224555 512.30548352 C248.28883227 512.31648849 244.51544656 512.32035886 240.74201965 512.32417297 C238.0345537 512.32991155 235.32709182 512.33707499 232.61962891 512.34408569 C224.49631526 512.36380428 216.37300045 512.37391198 208.24966887 512.38281348 C204.41540432 512.38720529 200.58114114 512.3925699 196.74687767 512.39780235 C183.98461221 512.41481256 171.22234757 512.42930279 158.46007252 512.43655109 C155.15171113 512.43846071 151.84334976 512.44038108 148.5349884 512.44233704 C147.71280222 512.44282078 146.89061603 512.44330452 146.04351511 512.44380292 C132.74931672 512.45208851 119.45520874 512.47740141 106.16104976 512.50991771 C92.4830597 512.54309735 78.80511539 512.56100979 65.12708491 512.56419533 C57.45931844 512.56635074 49.79168367 512.57495566 42.12395668 512.60065651 C35.58828703 512.62251337 29.05278108 512.63034132 22.51707903 512.62068973 C19.19088673 512.61618731 15.86530113 512.6200347 12.53911209 512.63745117 C-19.50370667 512.79571582 -48.00146395 506.23826765 -74.26115417 487.14717102 C-75.48318542 486.26158508 -75.48318542 486.26158508 -76.72990417 485.35810852 C-95.19256972 471.27133448 -108.9114072 453.32904812 -118.26115417 432.14717102 C-118.98238464 430.51715149 -118.98238464 430.51715149 -119.71818542 428.85420227 C-125.64684561 414.43555742 -128.41105779 399.41416056 -128.4083252 383.88601685 C-128.41200188 382.75891963 -128.41567857 381.63182242 -128.41946667 380.47057074 C-128.43047164 376.69715746 -128.43434201 372.92377175 -128.43815613 369.15034485 C-128.44389471 366.44287889 -128.45105814 363.73541702 -128.45806885 361.0279541 C-128.47778743 352.90464045 -128.48789513 344.78132565 -128.49679664 336.65799406 C-128.50118844 332.82372952 -128.50655305 328.98946634 -128.51178551 325.15520287 C-128.52879572 312.3929374 -128.54328595 299.63067277 -128.55053425 286.86839771 C-128.55244386 283.56003633 -128.55436423 280.25167495 -128.55632019 276.9433136 C-128.5570458 275.71003432 -128.5570458 275.71003432 -128.55778607 274.4518403 C-128.56607166 261.15764192 -128.59138456 247.86353394 -128.62390087 234.56937496 C-128.6570805 220.89138489 -128.67499295 207.21344059 -128.67817849 193.53541011 C-128.68033389 185.86764363 -128.68893882 178.20000887 -128.71463966 170.53228188 C-128.73649653 163.99661223 -128.74432447 157.46110628 -128.73467288 150.92540423 C-128.73017047 147.59921193 -128.73401786 144.27362632 -128.75143433 140.94743729 C-128.90969898 108.90461852 -122.35225081 80.40686125 -103.26115417 54.14717102 C-102.67076355 53.33248352 -102.08037292 52.51779602 -101.47209167 51.67842102 C-87.38531764 33.21575548 -69.44303127 19.49691799 -48.26115417 10.14717102 C-47.17447449 9.66635071 -46.0877948 9.1855304 -44.96818542 8.69013977 C-30.54954057 2.76147959 -15.52814371 -0.0027326 0 0 Z " fill="#F26B15" transform="translate(128.2611541748047,-0.1471710205078125)"/>
<path d="M0 0 C0.96559845 -0.00426498 1.9311969 -0.00852997 2.92605591 -0.01292419 C4.52872566 -0.01224442 4.52872566 -0.01224442 6.16377258 -0.0115509 C7.28259827 -0.01490952 8.40142395 -0.01826813 9.55415344 -0.02172852 C13.27991324 -0.0312813 17.00562822 -0.03318454 20.73139954 -0.03425598 C23.31960061 -0.03746826 25.90780151 -0.04083231 28.4960022 -0.04434204 C33.93946326 -0.05034599 39.38290652 -0.05222364 44.82637024 -0.05158997 C51.08762331 -0.0509926 57.34878926 -0.06147238 63.61002034 -0.07733363 C69.65253662 -0.09208785 75.69500645 -0.09557504 81.73754311 -0.09498024 C84.29656642 -0.09615479 86.85559048 -0.10054686 89.41460228 -0.10831261 C124.03687051 -0.20344546 124.03687051 -0.20344546 135.53218079 6.13371277 C136.31850891 6.53203308 137.10483704 6.93035339 137.91499329 7.34074402 C150.74026565 14.31624482 160.02928714 25.32948879 164.53218079 39.13371277 C172.53747944 35.24964094 180.26398331 31.05991866 187.90718079 26.50871277 C196.85969714 21.2271086 205.88840739 16.12862343 215.04927063 11.21720886 C220.26843475 8.41028877 225.36608006 5.46642843 230.40766907 2.35050964 C234.62786541 -0.06657362 238.77099229 -0.59814522 243.53218079 0.13371277 C247.91826469 1.84138033 251.48813149 3.89390422 254.53218079 7.50871277 C256.68994129 13.1728341 256.67988745 19.15523946 256.67262268 25.14825439 C256.67707936 26.31468819 256.67707936 26.31468819 256.68162608 27.5046863 C256.69025606 30.09466261 256.69181643 32.68459239 256.6933136 35.27458191 C256.69794558 37.13777768 256.70297075 39.00097252 256.70835876 40.86416626 C256.72144266 45.91358 256.72791914 50.96298047 256.73236942 56.01240849 C256.73530486 59.16787535 256.73941042 62.3233386 256.7438736 65.47880363 C256.75753404 75.35447168 256.76720946 85.23013148 256.77107549 95.10580832 C256.77556163 106.50186245 256.79314138 117.89779696 256.82207608 129.29381472 C256.84367972 138.10841654 256.85377896 146.92298465 256.85511661 155.73761266 C256.85616499 161.0004766 256.86208083 166.26322787 256.87993622 171.52606392 C256.89639546 176.47305134 256.89858285 181.41984107 256.88979721 186.36684608 C256.88902586 188.18168924 256.89338249 189.99654294 256.90325546 191.81135941 C256.91594824 194.28986055 256.9101131 196.76765856 256.89967346 199.24615479 C256.91175807 200.32169722 256.91175807 200.32169722 256.92408681 201.41896778 C256.86453716 207.46872756 255.06800725 211.30732454 251.21968079 215.88371277 C247.16503099 219.27830329 243.75758683 220.39377087 238.52436829 220.03215027 C232.43898584 219.27517005 227.66054866 216.39242448 222.40718079 213.38371277 C221.36602112 212.80315125 220.32486145 212.22258972 219.25215149 211.62443542 C216.00388129 209.8084984 212.76790497 207.97189098 209.53218079 206.13371277 C207.52899603 205.01002976 205.52511014 203.88759557 203.52046204 202.76652527 C193.41634663 197.10079239 183.36567986 191.34423179 173.38056946 185.47111511 C172.65200745 185.04524109 171.92344543 184.61936707 171.17280579 184.18058777 C170.5389093 183.80772644 169.90501282 183.43486511 169.25190735 183.05070496 C167.37527116 181.98844982 167.37527116 181.98844982 164.53218079 181.13371277 C164.2705011 182.01027527 164.00882141 182.88683777 163.73921204 183.78996277 C158.8031292 197.46403042 148.11109256 207.74009798 135.46968079 214.44621277 C124.26245545 219.60473197 112.93649808 220.28480892 100.76509094 220.27897644 C99.73927414 220.28233505 98.71345734 220.28569366 97.65655518 220.28915405 C94.29477194 220.29858539 90.9330389 220.30060307 87.57124329 220.30168152 C85.21531657 220.30489905 82.85939005 220.30826349 80.50346375 220.31176758 C75.57618242 220.31773895 70.64891859 220.31960948 65.72163391 220.3190155 C59.4319889 220.31891388 53.14245679 220.33257484 46.85283852 220.34978771 C41.99015291 220.36094641 37.1274943 220.36293354 32.26479721 220.36240578 C29.94694504 220.36357972 27.62909204 220.36796832 25.31125259 220.37573814 C3.27488441 220.44270685 -16.35704947 219.31627563 -33.33500671 203.40324402 C-39.22500223 197.13568469 -44.10279721 190.05621603 -47.46781921 182.13371277 C-47.89707703 181.14951355 -47.89707703 181.14951355 -48.33500671 180.14543152 C-51.60864597 172.11722096 -51.6150136 163.95182351 -51.59721375 155.39421082 C-51.59896606 154.34757263 -51.60071838 153.30093445 -51.6025238 152.22257996 C-51.60690648 148.78018002 -51.60401631 145.33783194 -51.60063171 141.89543152 C-51.60130593 139.4894103 -51.60227695 137.08338915 -51.60353088 134.67736816 C-51.60500313 129.63977916 -51.60286904 124.60220791 -51.59819031 119.56462097 C-51.59250255 113.12912164 -51.59576901 106.6936641 -51.60176277 100.25816631 C-51.605389 95.29000539 -51.60422018 90.32185424 -51.60163498 85.35369301 C-51.60097093 82.98198758 -51.60177576 80.61028125 -51.60411453 78.23857689 C-51.60667395 74.91282703 -51.602754 71.58714329 -51.59721375 68.26139832 C-51.59923798 67.29428421 -51.60126221 66.3271701 -51.60334778 65.33074951 C-51.54264128 45.50942845 -46.44311767 31.15844756 -32.89360046 16.49308777 C-25.08991368 8.90302848 -15.91354955 3.90502898 -5.46781921 1.13371277 C-3.87240056 -0.46170589 -2.21133055 0.00439241 0 0 Z " fill="#FEFEFD" transform="translate(153.4678192138672,145.8662872314453)"/>
<path d="M0 0 C1.08740479 -0.0071553 2.17480957 -0.01431061 3.29516602 -0.02168274 C6.86721622 -0.03850417 10.4379997 -0.01920257 14.01000977 0.00219727 C16.50667931 0.00136791 19.00334881 -0.00109397 21.50001526 -0.00511169 C27.39182778 -0.00832995 33.28318269 0.01347433 39.17490202 0.04484087 C43.85842324 0.06768083 48.54154628 0.06786819 53.22509766 0.0546875 C59.706526 0.03651344 66.18759761 0.03804544 72.66902351 0.05690193 C75.13086482 0.06206634 77.59272477 0.06162321 80.05456352 0.05535698 C83.5029228 0.04987443 86.95020152 0.07037964 90.3984375 0.09765625 C91.90824944 0.08786743 91.90824944 0.08786743 93.44856262 0.07788086 C101.06608327 0.1797461 108.03110881 1.69906353 114.13110352 6.49047852 C114.62868164 7.11438477 115.12625977 7.73829102 115.63891602 8.38110352 C116.15196289 8.99469727 116.66500977 9.60829102 117.19360352 10.24047852 C121.96291651 17.50122367 123.35602529 23.00744371 123.31323242 31.72192383 C123.32345428 32.80597 123.33367615 33.89001617 123.34420776 35.00691223 C123.37190481 38.57457853 123.37009308 42.14146776 123.36547852 45.70922852 C123.37325884 48.20253788 123.38192951 50.69584462 123.39144897 53.18914795 C123.40635385 58.41093543 123.40580608 63.63245244 123.39526367 68.85424805 C123.38187615 75.52327271 123.41750626 82.19101077 123.46395302 88.85991287 C123.49352088 94.00917968 123.49515833 99.15818133 123.48893356 104.30751801 C123.48995575 106.76494295 123.50035123 109.22238356 123.5205574 111.67972565 C123.62638681 126.35232074 123.53507798 136.60288757 114.51391602 148.63110352 C107.07091496 154.04419519 99.48121482 155.22169984 90.47436523 155.14868164 C88.85285049 155.15919556 88.85285049 155.15919556 87.19857788 155.16992188 C83.65498537 155.18740774 80.11220296 155.17591364 76.56860352 155.16235352 C74.0909917 155.16505072 71.61338091 155.16893504 69.13577271 155.1739502 C63.95621613 155.17983219 58.77693639 155.17132233 53.59741211 155.15258789 C46.96865296 155.12977575 40.3405409 155.14294477 33.71180534 155.16687775 C28.60046536 155.18135017 23.48927815 155.17672339 18.3779335 155.16636658 C15.93397062 155.16370455 13.48999372 155.16695052 11.04604721 155.17628479 C7.62855146 155.18647634 4.21209625 155.17091228 0.79467773 155.14868164 C-0.20813232 155.15677856 -1.21094238 155.16487549 -2.24414062 155.17321777 C-11.8477781 155.0578501 -18.56779349 151.43513529 -25.23608398 144.63110352 C-31.09875365 137.18392853 -31.53505792 130.1066495 -31.52661133 120.98925781 C-31.53332855 119.94115936 -31.54004578 118.89306091 -31.54696655 117.8132019 C-31.56590928 114.36052666 -31.56986889 110.90804619 -31.57202148 107.45532227 C-31.57845194 105.04547548 -31.58518048 102.63562947 -31.5921936 100.2257843 C-31.60415703 95.17801097 -31.60787537 90.13030603 -31.60668945 85.08251953 C-31.60648631 78.62991063 -31.63378843 72.17774238 -31.66823387 65.72523785 C-31.6905242 60.74851994 -31.69452633 55.77190774 -31.69347 50.79514503 C-31.69582273 48.41701552 -31.70462765 46.03888296 -31.72013474 43.66080284 C-31.73983731 40.32726984 -31.7339392 36.99468263 -31.72192383 33.66113281 C-31.73316284 32.68885239 -31.74440186 31.71657196 -31.75598145 30.71482849 C-31.68074859 22.45727713 -29.79213336 14.98428078 -24.04858398 8.81860352 C-16.57886714 2.10432312 -9.96187309 -0.115487 0 0 Z " fill="#F37316" transform="translate(166.236083984375,178.368896484375)"/>
<path d="M0 0 C1.12709721 -0.00367669 2.25419443 -0.00735338 3.4154461 -0.01114148 C7.18885938 -0.02214645 10.96224509 -0.02601682 14.735672 -0.02983093 C17.44313795 -0.03556951 20.15059983 -0.04273295 22.85806274 -0.04974365 C30.98137639 -0.06946224 39.1046912 -0.07956994 47.22802278 -0.08847144 C51.06228733 -0.09286325 54.89655051 -0.09822785 58.73081398 -0.10346031 C71.49307944 -0.12047052 84.25534408 -0.13496075 97.01761913 -0.14220905 C100.32598052 -0.14411867 103.63434189 -0.14603904 106.94270325 -0.147995 C107.76488943 -0.14847874 108.58707562 -0.14896248 109.43417654 -0.14946087 C122.72837493 -0.15774647 136.02248291 -0.18305936 149.31664189 -0.21557567 C162.99463195 -0.24875531 176.67257626 -0.26666775 190.35060674 -0.26985329 C198.01837321 -0.2720087 205.68600798 -0.28061362 213.35373497 -0.30631447 C219.88940462 -0.32817133 226.42491057 -0.33599927 232.96061262 -0.32634769 C236.28680492 -0.32184527 239.61239052 -0.32569266 242.93857956 -0.34310913 C274.98139832 -0.50137378 303.4791556 6.05607439 329.73884583 25.14717102 C330.55353333 25.73756165 331.36822083 26.32795227 332.20759583 26.93623352 C350.67026137 41.02300756 364.38909885 58.96529392 373.73884583 80.14717102 C374.46007629 81.77719055 374.46007629 81.77719055 375.19587708 83.44013977 C381.12453726 97.85878463 383.88874944 112.88018148 383.88601685 128.4083252 C383.88969353 129.53542241 383.89337022 130.66251962 383.89715832 131.8237713 C383.90816329 135.59718458 383.91203366 139.37057029 383.91584778 143.14399719 C383.92158636 145.85146315 383.92874979 148.55892502 383.9357605 151.26638794 C383.95547908 159.38970159 383.96558678 167.51301639 383.97448829 175.63634798 C383.97888009 179.47061252 383.9842447 183.3048757 383.98947716 187.13913918 C384.00648737 199.90140464 384.0209776 212.66366927 384.0282259 225.42594433 C384.03013551 228.73430571 384.03205588 232.04266709 384.03401184 235.35102844 C384.03449558 236.17321463 384.03497932 236.99540082 384.03547772 237.84250174 C384.04376331 251.13670012 384.06907621 264.4308081 384.10159252 277.72496708 C384.13477215 291.40295715 384.1526846 305.08090145 384.15587014 318.75893193 C384.15802554 326.42669841 384.16663047 334.09433317 384.19233131 341.76206017 C384.21418818 348.29772981 384.22201612 354.83323576 384.21236453 361.36893781 C384.20786212 364.69513011 384.21170951 368.02071572 384.22912598 371.34690475 C384.38739063 403.38972352 377.82994246 431.88748079 358.73884583 458.14717102 C357.85325989 459.36920227 357.85325989 459.36920227 356.94978333 460.61592102 C342.86300929 479.07858657 324.92072292 492.79742405 303.73884583 502.14717102 C302.10882629 502.86840149 302.10882629 502.86840149 300.44587708 503.60420227 C286.02723222 509.53286245 271.00583536 512.29707464 255.47769165 512.29434204 C254.35059444 512.29801873 253.22349722 512.30169542 252.06224555 512.30548352 C248.28883227 512.31648849 244.51544656 512.32035886 240.74201965 512.32417297 C238.0345537 512.32991155 235.32709182 512.33707499 232.61962891 512.34408569 C224.49631526 512.36380428 216.37300045 512.37391198 208.24966887 512.38281348 C204.41540432 512.38720529 200.58114114 512.3925699 196.74687767 512.39780235 C183.98461221 512.41481256 171.22234757 512.42930279 158.46007252 512.43655109 C155.15171113 512.43846071 151.84334976 512.44038108 148.5349884 512.44233704 C147.71280222 512.44282078 146.89061603 512.44330452 146.04351511 512.44380292 C132.74931672 512.45208851 119.45520874 512.47740141 106.16104976 512.50991771 C92.4830597 512.54309735 78.80511539 512.56100979 65.12708491 512.56419533 C57.45931844 512.56635074 49.79168367 512.57495566 42.12395668 512.60065651 C35.58828703 512.62251337 29.05278108 512.63034132 22.51707903 512.62068973 C19.19088673 512.61618731 15.86530113 512.6200347 12.53911209 512.63745117 C-19.50370667 512.79571582 -48.00146395 506.23826765 -74.26115417 487.14717102 C-75.48318542 486.26158508 -75.48318542 486.26158508 -76.72990417 485.35810852 C-95.19256972 471.27133448 -108.9114072 453.32904812 -118.26115417 432.14717102 C-118.98238464 430.51715149 -118.98238464 430.51715149 -119.71818542 428.85420227 C-125.64684561 414.43555742 -128.41105779 399.41416056 -128.4083252 383.88601685 C-128.41200188 382.75891963 -128.41567857 381.63182242 -128.41946667 380.47057074 C-128.43047164 376.69715746 -128.43434201 372.92377175 -128.43815613 369.15034485 C-128.44389471 366.44287889 -128.45105814 363.73541702 -128.45806885 361.0279541 C-128.47778743 352.90464045 -128.48789513 344.78132565 -128.49679664 336.65799406 C-128.50118844 332.82372952 -128.50655305 328.98946634 -128.51178551 325.15520287 C-128.52879572 312.3929374 -128.54328595 299.63067277 -128.55053425 286.86839771 C-128.55244386 283.56003633 -128.55436423 280.25167495 -128.55632019 276.9433136 C-128.5570458 275.71003432 -128.5570458 275.71003432 -128.55778607 274.4518403 C-128.56607166 261.15764192 -128.59138456 247.86353394 -128.62390087 234.56937496 C-128.6570805 220.89138489 -128.67499295 207.21344059 -128.67817849 193.53541011 C-128.68033389 185.86764363 -128.68893882 178.20000887 -128.71463966 170.53228188 C-128.73649653 163.99661223 -128.74432447 157.46110628 -128.73467288 150.92540423 C-128.73017047 147.59921193 -128.73401786 144.27362632 -128.75143433 140.94743729 C-128.90969898 108.90461852 -122.35225081 80.40686125 -103.26115417 54.14717102 C-102.67076355 53.33248352 -102.08037292 52.51779602 -101.47209167 51.67842102 C-87.38531764 33.21575548 -69.44303127 19.49691799 -48.26115417 10.14717102 C-47.17447449 9.66635071 -46.0877948 9.1855304 -44.96818542 8.69013977 C-30.54954057 2.76147959 -15.52814371 -0.0027326 0 0 Z M-40.01115417 12.33467102 C-40.78080505 12.6287384 -41.55045593 12.92280579 -42.34342957 13.2257843 C-73.68880594 25.6453464 -99.48469787 50.48999211 -113.12101746 81.28901672 C-119.65252756 96.75791133 -123.41560381 112.53368361 -123.40159607 129.31462097 C-123.40456719 130.43158423 -123.40753831 131.54854748 -123.41059947 132.69935811 C-123.41926379 136.43831769 -123.42079282 140.17724517 -123.42228699 143.91621399 C-123.42691687 146.59899037 -123.43192154 149.28176388 -123.43733215 151.96453857 C-123.45088761 159.25222151 -123.45693634 166.53989893 -123.46134281 173.82759237 C-123.46411094 178.38486566 -123.46834942 182.94213685 -123.47284698 187.49940872 C-123.48503787 200.13557998 -123.49533633 212.77174955 -123.49872208 225.40792656 C-123.49894164 226.21599725 -123.49916121 227.02406794 -123.49938743 227.85662562 C-123.49960571 228.66655681 -123.49982398 229.476488 -123.50004888 230.31096256 C-123.50049233 231.9520034 -123.50093889 233.59304424 -123.50138855 235.23408508 C-123.50160998 236.04808636 -123.50183141 236.86208763 -123.50205955 237.70075561 C-123.50600195 250.8708658 -123.52343971 264.04092047 -123.54674807 277.21100925 C-123.57052617 290.75677379 -123.58292692 304.30251056 -123.58408999 317.84829628 C-123.58500333 325.443841 -123.59066877 333.03931343 -123.60890961 340.6348381 C-123.6243983 347.10689612 -123.62937999 353.57885952 -123.6211715 360.05093257 C-123.61729522 363.34625206 -123.61971525 366.64134402 -123.63222885 369.93664742 C-123.69263319 386.84486092 -123.2550783 403.07983359 -117.57365417 419.20967102 C-117.1934613 420.31399475 -117.1934613 420.31399475 -116.80558777 421.44062805 C-105.16647115 454.05389364 -81.42474315 480.13785713 -50.45378113 495.37886047 C-45.49499342 497.71026205 -40.44274205 499.68171375 -35.26115417 501.45967102 C-34.26764954 501.8053009 -34.26764954 501.8053009 -33.2540741 502.15791321 C-16.77798224 507.48881643 -0.61916707 507.57922175 16.52961731 507.53535461 C19.21373039 507.53942614 21.89781874 507.54466416 24.58192444 507.55128479 C31.08126908 507.56454175 37.5805091 507.56178044 44.07985764 507.55304687 C49.36823998 507.54623821 54.65659324 507.54536726 59.94497871 507.54861832 C60.70112693 507.54907802 61.45727514 507.54953771 62.23633694 507.55001134 C63.77302997 507.55097064 65.30972299 507.55194328 66.846416 507.55292912 C81.21628728 507.56145962 95.58610091 507.55168608 109.95596272 507.53552802 C122.2515392 507.5221297 134.54703065 507.52445347 146.84260559 507.5382843 C161.16375263 507.55438637 175.48484928 507.56063301 189.80600411 507.55144751 C191.33696845 507.55049199 192.86793281 507.54954888 194.39889717 507.54861832 C195.15191559 507.54815549 195.904934 507.54769266 196.68077115 507.54721581 C201.9543933 507.54463955 207.22798313 507.54896732 212.50160027 507.55605698 C218.94051618 507.56452395 225.37932257 507.56208394 231.81822615 507.54621474 C235.09537051 507.53840072 238.3722982 507.536772 241.64944649 507.5451622 C258.35105498 507.583956 274.52289938 507.15364855 290.48884583 501.64717102 C291.57492126 501.27640442 291.57492126 501.27640442 292.68293762 500.89814758 C307.70294705 495.48845917 321.67123404 487.578771 333.73884583 477.14717102 C334.24174133 476.72500305 334.74463684 476.30283508 335.26277161 475.86787415 C359.48400434 455.47266076 375.39874082 424.56644783 378.73884583 393.14717102 C379.28138862 384.2081551 379.1602261 375.24186498 379.14289856 366.29048157 C379.14861081 363.61108807 379.15547962 360.93171934 379.16369629 358.25233459 C379.18077388 351.76750085 379.18174742 345.28276447 379.17648339 338.79791411 C379.17241949 333.51959162 379.17391137 328.24129761 379.17923164 322.96297646 C379.17998007 322.2078299 379.18072849 321.45268335 379.18149959 320.67465356 C379.18303128 319.13989926 379.18456963 317.60514497 379.18611456 316.07039068 C379.19979979 301.72141107 379.19443012 287.37248619 379.18292934 273.02350787 C379.17300235 259.94009616 379.18593549 246.85682598 379.20986354 233.77343609 C379.23433546 220.2894787 379.24384254 206.80558701 379.23721081 193.32160789 C379.23373633 185.7713772 379.23583232 178.2212552 379.25346184 170.67104149 C379.26828565 164.24355871 379.2686881 157.81626117 379.25139093 151.38878163 C379.24296095 148.11929763 379.24275662 144.85020587 379.25604248 141.58072853 C379.32441536 123.34952635 378.29405693 105.55653254 371.55134583 88.39717102 C371.25727844 87.62752014 370.96321106 86.85786926 370.66023254 86.06489563 C358.18690753 54.58382859 333.20745539 28.75592752 302.25447083 15.10810852 C286.61675443 8.58379687 270.55037684 4.99698202 253.59158325 5 C252.4767367 4.99632331 251.36189014 4.99264662 250.21326035 4.98885852 C246.48130563 4.97785461 242.74937878 4.97398336 239.01741028 4.97016907 C236.33950131 4.96390174 233.66159527 4.95726695 230.98368835 4.95025635 C222.94936332 4.93053864 214.91503711 4.92043015 206.88069394 4.91152856 C203.0882697 4.90713659 199.29584684 4.90177202 195.50342369 4.89653969 C182.88012768 4.87952953 170.25683251 4.86503937 157.6335268 4.85779095 C154.36126008 4.85588134 151.08899337 4.85396097 147.81672668 4.852005 C147.00351234 4.85152126 146.190298 4.85103752 145.3524408 4.85053913 C132.20373878 4.84225379 119.05512817 4.81694131 105.90646598 4.78442433 C92.37763754 4.75124274 78.84885536 4.73333207 65.31998605 4.73014671 C57.73605597 4.72799148 50.15225906 4.71938915 42.56836891 4.69368553 C36.10406449 4.67182597 29.63992559 4.66400201 23.17558841 4.67365231 C19.88590748 4.6781539 16.59663324 4.6743103 13.30698586 4.65689087 C-4.9786388 4.56555785 -22.79957678 5.57144187 -40.01115417 12.33467102 Z " fill="#585353" transform="translate(128.2611541748047,-0.1471710205078125)"/>
<path d="M0 0 C0 42.24 0 84.48 0 128 C-4.52712383 127.09457523 -7.00277449 126.10508298 -10.9375 123.90234375 C-12.08089844 123.26490234 -13.22429687 122.62746094 -14.40234375 121.97070312 C-14.99515137 121.63562744 -15.58795898 121.30055176 -16.19873047 120.95532227 C-17.96313197 119.95833259 -19.7328476 118.97143306 -21.50390625 117.98632812 C-27.42860882 114.67699149 -33.3033673 111.2818562 -39.1171875 107.78125 C-40.14956543 107.16185547 -41.18194336 106.54246094 -42.24560547 105.90429688 C-49.46083177 100.91592911 -52.88533916 94.31474102 -55 86 C-55.39500303 82.60798007 -55.42186222 79.25999336 -55.3984375 75.84765625 C-55.40130768 74.90748154 -55.40417786 73.96730682 -55.40713501 72.99864197 C-55.40916393 71.02293287 -55.40371672 69.04720314 -55.39111328 67.0715332 C-55.37506114 64.07391704 -55.390993 61.07765266 -55.41015625 58.08007812 C-55.40817326 56.14843457 -55.40432843 54.21679184 -55.3984375 52.28515625 C-55.40451019 51.4025563 -55.41058289 50.51995636 -55.4168396 49.61061096 C-55.30780018 39.79677314 -53.15718006 32.15663127 -46.27929688 25.01855469 C-42.58825066 21.74974898 -38.59191864 19.42553833 -34.25 17.125 C-33.34910645 16.63032227 -32.44821289 16.13564453 -31.52001953 15.62597656 C-29.63924719 14.59487002 -27.75458577 13.57082735 -25.86621094 12.55371094 C-22.98995236 10.99455339 -20.13762905 9.39818391 -17.2890625 7.7890625 C-15.48464671 6.77555778 -13.67996893 5.7625193 -11.875 4.75 C-11.0284082 4.27191895 -10.18181641 3.79383789 -9.30957031 3.30126953 C-8.52420898 2.86669434 -7.73884766 2.43211914 -6.9296875 1.984375 C-6.24116699 1.59991211 -5.55264648 1.21544922 -4.84326172 0.81933594 C-3 0 -3 0 0 0 Z " fill="#F25A16" transform="translate(377,192)"/>
</svg>
