<svg width="512" height="512" viewBox="0 0 512 512" fill="none" xmlns="http://www.w3.org/2000/svg" xmlns:xlink="http://www.w3.org/1999/xlink" class=""><rect id="r4" width="502" height="502" x="5" y="5" rx="128" fill="url(#r5)" stroke="#585454" stroke-width="10" stroke-opacity="50%" paint-order="stroke"></rect><clipPath id="clip"><use xlink:href="#r4"></use></clipPath><defs><linearGradient id="r5" gradientUnits="userSpaceOnUse" gradientTransform="rotate(45)" style="transform-origin: center center;"><stop stop-color="#F5AF19"></stop><stop offset="1" stop-color="#F12711"></stop></linearGradient><radialGradient id="r6" cx="0" cy="0" r="1" gradientUnits="userSpaceOnUse" gradientTransform="translate(256) rotate(90) scale(512)"><stop stop-color="white"></stop><stop offset="1" stop-color="white" stop-opacity="0"></stop></radialGradient></defs><svg viewBox="0 0 16 16" fill="none" xmlns="http://www.w3.org/2000/svg" width="352" height="352" x="80" y="80" alignment-baseline="middle" style="color: rgb(255, 255, 255);"><path d="M10.25 8.83a2 2 0 0 0 1.02 1.743l2.98 1.677v-8.5l-2.98 1.677a2 2 0 0 0-1.02 1.743m0 1.66v1.42c0 1.1-.8 2-2 2h-4.5a2 2 0 0 1-2-2v-4.5a2 2 0 0 1 2-2h4.5c1.2 0 2 .9 2 2v1.42m0 1.66V7.17" stroke="currentColor" stroke-width="1.5" stroke-linecap="round" stroke-linejoin="round"></path></svg></svg>