<?xml version="1.0" encoding="UTF-8"?>
<svg version="1.1" xmlns="http://www.w3.org/2000/svg" width="317" height="110">
<path d="M0 0 C1.93073112 -0.01268921 1.93073112 -0.01268921 3.90046692 -0.02563477 C5.3299268 -0.01980165 6.75938543 -0.01365713 8.18884277 -0.00723267 C9.6917916 -0.01129702 11.19473745 -0.01663813 12.69767761 -0.02316284 C16.78235616 -0.03685859 20.86680781 -0.03152856 24.9514904 -0.02202559 C29.22222387 -0.01444065 33.49293766 -0.02147135 37.76367188 -0.02618408 C44.93619278 -0.03164504 52.10862108 -0.02444112 59.28112793 -0.01016235 C67.57852618 0.00616484 75.87570329 0.00087657 84.17309618 -0.01564157 C91.29163525 -0.02924676 98.41010767 -0.03118085 105.52865553 -0.02332556 C109.78263442 -0.01864371 114.03650932 -0.0180382 118.29048157 -0.02793503 C122.28945603 -0.0365884 126.28814485 -0.03061286 130.28708839 -0.01325226 C131.75647825 -0.00927866 133.22589206 -0.01043637 134.69527245 -0.01704025 C136.69747445 -0.02521053 138.69972886 -0.01315876 140.7019043 0 C141.82351707 0.00113108 142.94512985 0.00226215 144.1007309 0.00342751 C146.85095215 0.38095093 146.85095215 0.38095093 148.71145821 1.70789146 C150.599611 4.48016763 150.23306994 7.16586187 150.23913574 10.46688843 C150.24702118 11.54296356 150.24702118 11.54296356 150.25506592 12.64077759 C150.2682726 15.01272335 150.25952591 17.38399831 150.24938965 19.75595093 C150.2514102 21.40357594 150.25432149 23.05120008 150.25808716 24.69882202 C150.2625114 28.15219638 150.25607636 31.60533799 150.24206543 35.0586853 C150.22497333 39.48757453 150.234814 43.91591839 150.25278282 48.3447876 C150.26361805 51.74712236 150.26017556 55.14932761 150.25239944 58.55166626 C150.25039671 60.18476424 150.25285931 61.81787395 150.2598381 63.45095825 C150.26744849 65.7326273 150.25585524 68.01341044 150.23913574 70.29501343 C150.23674896 71.59390503 150.23436218 72.89279663 150.23190308 74.23104858 C149.85095215 77.38095093 149.85095215 77.38095093 148.71145821 79.05401039 C146.02163354 80.97243327 143.9875797 80.75858846 140.7019043 80.76190186 C139.41475021 80.77036133 138.12759613 80.7788208 136.80143738 80.78753662 C135.3719775 80.7817035 133.94251887 80.77555898 132.51306152 80.76913452 C131.01011269 80.77319887 129.50716685 80.77853999 128.00422668 80.7850647 C123.91954814 80.79876045 119.83509649 80.79343042 115.75041389 80.78392744 C111.47968043 80.7763425 107.20896664 80.7833732 102.93823242 80.78808594 C95.76571152 80.7935469 88.59328322 80.78634297 81.42077637 80.77206421 C73.12337812 80.75573701 64.826201 80.76102528 56.52880812 80.77754343 C49.41026905 80.79114862 42.29179663 80.7930827 35.17324877 80.78522742 C30.91926987 80.78054556 26.66539498 80.77994006 22.41142273 80.78983688 C18.41244826 80.79849026 14.41375945 80.79251472 10.4148159 80.77515411 C8.94542605 80.77118051 7.47601224 80.77233822 6.00663185 80.77894211 C4.00442985 80.78711239 2.00217543 80.77506061 0 80.76190186 C-1.12161278 80.76077078 -2.24322556 80.7596397 -3.3988266 80.75847435 C-6.14904785 80.38095093 -6.14904785 80.38095093 -8.00955391 79.05401039 C-9.8977067 76.28173423 -9.53116564 73.59603999 -9.53723145 70.29501343 C-9.5424884 69.57763 -9.54774536 68.86024658 -9.55316162 68.12112427 C-9.5663683 65.74917851 -9.55762162 63.37790355 -9.54748535 61.00595093 C-9.54950591 59.35832592 -9.55241719 57.71070178 -9.55618286 56.06307983 C-9.5606071 52.60970547 -9.55417207 49.15656387 -9.54016113 45.70321655 C-9.52306903 41.27432733 -9.5329097 36.84598347 -9.55087852 32.41711426 C-9.56171375 29.01477949 -9.55827126 25.61257424 -9.55049515 22.2102356 C-9.54849241 20.57713761 -9.55095501 18.94402791 -9.55793381 17.3109436 C-9.56554419 15.02927455 -9.55395094 12.74849141 -9.53723145 10.46688843 C-9.53484467 9.16799683 -9.53245789 7.86910522 -9.52999878 6.53085327 C-9.14904785 3.38095093 -9.14904785 3.38095093 -8.00955391 1.70789146 C-5.31972924 -0.21053142 -3.2856754 0.0033134 0 0 Z " fill="#FB9600" transform="translate(147.1490478515625,14.619049072265625)"/>
<path d="M0 0 C0.87914062 0.02255859 1.75828125 0.04511719 2.6640625 0.06835938 C4.81845007 0.12690252 6.9719531 0.21657217 9.125 0.3125 C9.125 1.6325 9.125 2.9525 9.125 4.3125 C7.805 4.3125 6.485 4.3125 5.125 4.3125 C5.455 4.9725 5.785 5.6325 6.125 6.3125 C6.5386968 10.96658901 5.93570393 13.56489476 3.125 17.3125 C0.22407498 19.24645001 -0.77174737 19.61381941 -4.0625 19.9375 C-5.320625 20.06125 -6.57875 20.185 -7.875 20.3125 C-7.875 20.9725 -7.875 21.6325 -7.875 22.3125 C-7.06675781 22.33828125 -6.25851563 22.3640625 -5.42578125 22.390625 C3.19652497 22.84826248 3.19652497 22.84826248 7.375 24.9375 C9.125 27.3125 9.125 27.3125 9.6875 30.75 C9.03679208 34.87115018 8.13626327 36.46400771 5.125 39.3125 C0.58628788 42.11582219 -4.71370471 41.72064197 -9.875 41.3125 C-13.00542299 40.51324307 -14.38493335 39.7856678 -16.6875 37.5625 C-18.25530597 34.59192027 -18.29805253 32.62641145 -17.875 29.3125 C-16.5 27.4375 -16.5 27.4375 -14.875 26.3125 C-14.215 26.3125 -13.555 26.3125 -12.875 26.3125 C-13.060625 25.19875 -13.24625 24.085 -13.4375 22.9375 C-13.875 19.3125 -13.875 19.3125 -12.875 17.3125 C-13.5865625 16.2296875 -13.5865625 16.2296875 -14.3125 15.125 C-16.33449 11.485418 -16.53500039 9.41916911 -15.875 5.3125 C-10.9844522 -0.14689989 -7.08841454 -0.346948 0 0 Z " fill="#0E0800" transform="translate(239.875,46.6875)"/>
<path d="M0 0 C2.64 0 5.28 0 8 0 C8.31453125 0.90621094 8.6290625 1.81242187 8.953125 2.74609375 C11.14583283 8.98738562 13.3627809 15.14946469 16.203125 21.1328125 C17 23 17 23 17.484375 25.1796875 C17.65453125 25.78039062 17.8246875 26.38109375 18 27 C18.66 27.33 19.32 27.66 20 28 C20.0825 27.030625 20.165 26.06125 20.25 25.0625 C20.80625678 21.1608679 22.21301955 17.96084899 23.8828125 14.4140625 C25.45355978 11.01993028 26.80099618 7.5464679 28.16796875 4.06640625 C29 2 29 2 30 0 C32.31 0 34.62 0 37 0 C37 12.54 37 25.08 37 38 C35.35 38 33.7 38 32 38 C31.67 29.09 31.34 20.18 31 11 C29.68 14.96 28.36 18.92 27 23 C24.875 27.875 24.875 27.875 23.8828125 30.01953125 C22.72386054 32.61948101 21.83652641 35.28128916 21 38 C19.35 38 17.7 38 16 38 C15.68546875 37.09378906 15.3709375 36.18757813 15.046875 35.25390625 C12.85416717 29.01261438 10.6372191 22.85053531 7.796875 16.8671875 C7 15 7 15 6 11 C5.67 19.91 5.34 28.82 5 38 C3.35 38 1.7 38 0 38 C0 25.46 0 12.92 0 0 Z " fill="#0E0800" transform="translate(152,38)"/>
<path d="M0 0 C1.11246094 -0.00515625 2.22492187 -0.0103125 3.37109375 -0.015625 C6.509509 0.24558949 8.73085425 0.91621546 11.5625 2.25 C10.9025 4.23 10.2425 6.21 9.5625 8.25 C8.73105469 8.14300781 7.89960937 8.03601562 7.04296875 7.92578125 C5.41294922 7.74595703 5.41294922 7.74595703 3.75 7.5625 C2.13158203 7.37107422 2.13158203 7.37107422 0.48046875 7.17578125 C-2.45435056 6.95984708 -2.45435056 6.95984708 -4.32421875 8.73046875 C-4.69160156 9.23191406 -5.05898438 9.73335937 -5.4375 10.25 C-4.25741167 13.28451284 -3.12172391 14.92601706 -0.15234375 16.33203125 C1.62390671 16.98864224 3.40126517 17.6422632 5.1796875 18.29296875 C8.11821785 19.47319815 9.78094461 20.61639637 11.5625 23.25 C12.81376589 27.00379768 12.61992456 29.02795835 11.625 32.875 C8.95788252 37.23937405 6.42707563 38.83715804 1.5625 40.25 C-4.13098608 41.02150154 -9.04965804 40.08415897 -14.4375 38.25 C-14.4375 35.94 -14.4375 33.63 -14.4375 31.25 C-13.71304687 31.41757813 -12.98859375 31.58515625 -12.2421875 31.7578125 C-4.722896 33.37183126 -4.722896 33.37183126 2.5625 31.25 C2.5625 29.6 2.5625 27.95 2.5625 26.25 C1.98242188 26.00765625 1.40234375 25.7653125 0.8046875 25.515625 C-10.65582293 20.59857432 -10.65582293 20.59857432 -13.8125 16.4375 C-14.73928233 13.19376185 -14.79090896 10.60738508 -14.4375 7.25 C-10.64959898 1.16230193 -6.96609597 -0.03221316 0 0 Z " fill="#FFFFFF" transform="translate(40.4375,36.75)"/>
<path d="M0 0 C2.84137134 2.48619993 3.89256872 4.53614211 4.22705078 8.31542969 C4.21657715 9.25805664 4.20610352 10.20068359 4.1953125 11.171875 C4.18886719 12.19667969 4.18242187 13.22148438 4.17578125 14.27734375 C4.15902344 15.34082031 4.14226562 16.40429688 4.125 17.5 C4.11597656 18.57894531 4.10695312 19.65789062 4.09765625 20.76953125 C4.07411305 23.42991278 4.04122799 26.08984336 4 28.75 C3.40541992 28.74274902 2.81083984 28.73549805 2.19824219 28.72802734 C-1.84980946 28.69921852 -5.74368033 28.72736186 -9.75 29.375 C-13.39967661 29.81372419 -15.77386479 29.74261292 -19 27.75 C-21.62186654 25.30895184 -21.97851434 23.89771393 -22.5 20.3125 C-21.87507801 15.85993081 -20.43769674 14.53289736 -17 11.75 C-14.35541621 10.42770811 -12.32238699 10.65322806 -9.375 10.6875 C-7.87066406 10.70103516 -7.87066406 10.70103516 -6.3359375 10.71484375 C-5.56507812 10.72644531 -4.79421875 10.73804688 -4 10.75 C-4.66 9.1 -5.32 7.45 -6 5.75 C-11.94 6.245 -11.94 6.245 -18 6.75 C-18.33 4.77 -18.66 2.79 -19 0.75 C-12.86823813 -1.83179447 -6.21313404 -2.58880585 0 0 Z M-14 18.75 C-13.67 20.07 -13.34 21.39 -13 22.75 C-11.20800528 23.53282648 -11.20800528 23.53282648 -9 23.75 C-6.7109211 22.72098426 -6.7109211 22.72098426 -5 20.75 C-4.1957792 18.15144267 -4.1957792 18.15144267 -4 15.75 C-8.44849969 15.4466932 -10.68152292 15.68679039 -14 18.75 Z " fill="#FFFFFF" transform="translate(127,47.25)"/>
<path d="M0 0 C4.29450433 3.1959102 6.24059617 7.02733635 7.03515625 12.3125 C7.22685093 17.24655429 6.50328802 20.82486604 3.6875 25 C0.0075984 28.40390898 -2.57778618 29.8690782 -7.625 30.25 C-12.97680237 29.88716594 -16.03199363 28.41893949 -19.625 24.4375 C-23.07022097 19.46106971 -22.78169364 14.93194816 -22.3125 9 C-20.79502552 4.75107147 -19.20348319 2.31027127 -15.3125 0 C-10.1344613 -1.7260129 -5.20907662 -1.57255143 0 0 Z M-12.01171875 6.2265625 C-14.36561895 9.43578379 -14.31932213 13.11821032 -14.3125 17 C-13.30150846 20.95971687 -12.77726311 21.69015792 -9.3125 24 C-6.72916667 23.91666667 -6.72916667 23.91666667 -4.3125 23 C-2.10422692 19.68759039 -1.61530805 17.93650463 -1.3125 14 C-1.94751074 10.27581392 -1.94751074 10.27581392 -3.3125 7 C-6.48593781 4.88437479 -8.65240778 3.80168056 -12.01171875 6.2265625 Z " fill="#FFFFFF" transform="translate(76.3125,47)"/>
<path d="M0 0 C0.92425781 -0.04898438 1.84851563 -0.09796875 2.80078125 -0.1484375 C5.941165 0.42099609 8.14563576 1.33138982 10.52514648 3.50292969 C13.1240679 7.68871617 12.27875403 12.94377369 12.0625 17.6875 C12.03542969 18.80962891 12.00835937 19.93175781 11.98046875 21.08789062 C11.90989001 23.85222459 11.81134488 26.61262415 11.6875 29.375 C10.0375 29.375 8.3875 29.375 6.6875 29.375 C6.6875 28.385 6.6875 27.395 6.6875 26.375 C6.048125 26.87 5.40875 27.365 4.75 27.875 C0.75034353 29.83401541 -2.92250509 30.17603664 -7.3125 29.375 C-9.5546875 28.16015625 -9.5546875 28.16015625 -11.3125 26.375 C-12.1332056 22.98463686 -11.96779356 19.7914878 -11.3125 16.375 C-8.68962069 13.3878319 -6.2583367 11.82595277 -2.3125 11.375 C0.3602575 11.30805232 3.01264123 11.33041902 5.6875 11.375 C5.3575 9.725 5.0275 8.075 4.6875 6.375 C0.3975 6.375 -3.8925 6.375 -8.3125 6.375 C-8.3125 4.725 -8.3125 3.075 -8.3125 1.375 C-5.34794931 0.38681644 -3.10611721 0.11169993 0 0 Z " fill="#140C00" transform="translate(207.3125,46.625)"/>
<path d="M0 0 C0.93423645 3.01031744 1.04449911 3.86650268 0 7 C-4.455 7.495 -4.455 7.495 -9 8 C-10.09315246 12.5838914 -10.32282625 17.12511007 -10.5625 21.8125 C-10.60568359 22.60076172 -10.64886719 23.38902344 -10.69335938 24.20117188 C-10.79878321 26.13394215 -10.89983094 28.06695026 -11 30 C-13.64 30 -16.28 30 -19 30 C-19 20.43 -19 10.86 -19 1 C-16.03 1 -13.06 1 -10 1 C-6.78548731 -0.60725635 -3.56387464 -0.05748185 0 0 Z " fill="#FFFFFF" transform="translate(105,46)"/>
<path d="M0 0 C-0.33 1.65 -0.66 3.3 -1 5 C-1.68707031 4.91621094 -2.37414062 4.83242188 -3.08203125 4.74609375 C-3.98308594 4.64425781 -4.88414062 4.54242188 -5.8125 4.4375 C-6.70582031 4.33308594 -7.59914063 4.22867188 -8.51953125 4.12109375 C-11.13375572 3.84341291 -11.13375572 3.84341291 -14 5 C-15.68374918 10.05124753 -15.5482874 14.93337826 -14.1875 20.0625 C-10.86071487 23.00908111 -7.5981187 22.37086142 -3.30078125 22.17578125 C-2.54152344 22.11777344 -1.78226562 22.05976562 -1 22 C-1 23.65 -1 25.3 -1 27 C-4.95860317 28.97930159 -9.69569237 28.5598088 -14 28 C-17.44802793 25.46675499 -19.41014263 22.92990719 -21 19 C-21.3359375 15.94140625 -21.3359375 15.94140625 -21.375 12.5625 C-21.40335937 11.45003906 -21.43171875 10.33757813 -21.4609375 9.19140625 C-20.90612703 5.35004904 -19.67502435 3.75428433 -17 1 C-12.49925807 -1.77987002 -4.79786533 -2.39893267 0 0 Z " fill="#0D0700" transform="translate(286,48)"/>
<path d="M0 0 C1.98 0 3.96 0 6 0 C6 9.57 6 19.14 6 29 C4.02 29 2.04 29 0 29 C0 19.43 0 9.86 0 0 Z " fill="#231500" transform="translate(253,47)"/>
<path d="M0 0 C1.08152344 0.01417969 2.16304687 0.02835937 3.27734375 0.04296875 C4.90349609 0.05263672 4.90349609 0.05263672 6.5625 0.0625 C9.21484375 0.23046875 9.21484375 0.23046875 10.21484375 1.23046875 C10.46484375 3.66796875 10.46484375 3.66796875 10.21484375 6.23046875 C6.82235027 8.49213107 5.56282874 8.4756242 1.58984375 8.41796875 C0.60757813 8.41152344 -0.3746875 8.40507813 -1.38671875 8.3984375 C-3.78515625 8.23046875 -3.78515625 8.23046875 -4.78515625 7.23046875 C-4.97265625 4.79296875 -4.97265625 4.79296875 -4.78515625 2.23046875 C-2.78515625 0.23046875 -2.78515625 0.23046875 0 0 Z " fill="#F09000" transform="translate(232.78515625,74.76953125)"/>
<path d="M0 0 C3 0.1875 3 0.1875 5 1.1875 C5.1953125 7.2421875 5.1953125 7.2421875 5 9.1875 C4.34 9.8475 3.68 10.5075 3 11.1875 C-3.57692308 10.61057692 -3.57692308 10.61057692 -5 9.1875 C-5.1875 5.75 -5.1875 5.75 -5 2.1875 C-3 0.1875 -3 0.1875 0 0 Z " fill="#EA8C00" transform="translate(235,50.8125)"/>
<path d="M0 0 C0.48192771 5.42168675 0.48192771 5.42168675 -1.5625 7.875 C-4.8305952 9.38335163 -7.44519888 9.26828688 -11 9 C-12 8 -12 8 -12.375 5.625 C-12 3 -12 3 -9.9375 1.1875 C-6.4483377 -0.22301242 -3.7303242 -0.21943084 0 0 Z " fill="#E78A00" transform="translate(213,62)"/>
<path d="M0 0 C0.33 0 0.66 0 1 0 C1 9.24 1 18.48 1 28 C0.67 28 0.34 28 0 28 C-0.33 21.4 -0.66 14.8 -1 8 C-1.99 8.99 -2.98 9.98 -4 11 C-3.5247412 9.35303396 -3.04468109 7.70745272 -2.5625 6.0625 C-2.29566406 5.14597656 -2.02882812 4.22945312 -1.75390625 3.28515625 C-1 1 -1 1 0 0 Z " fill="#BA6F00" transform="translate(183,48)"/>
<path d="M0 0 C1.65 0.33 3.3 0.66 5 1 C4.67 2.65 4.34 4.3 4 6 C2.35 5.67 0.7 5.34 -1 5 C-0.67 3.35 -0.34 1.7 0 0 Z " fill="#130B00" transform="translate(254,37)"/>
</svg>
